<?xml version="1.0" standalone="no"?>
<!DOCTYPE svg PUBLIC "-//W3C//DTD SVG 20010904//EN"
 "http://www.w3.org/TR/2001/REC-SVG-20010904/DTD/svg10.dtd">
<svg version="1.0" xmlns="http://www.w3.org/2000/svg"
 width="2000.000000pt" height="2000.000000pt" viewBox="0 0 2000.000000 2000.000000"
 preserveAspectRatio="xMidYMid meet">
<metadata>
Created by potrace 1.14, written by Peter Selinger 2001-2017
</metadata>
<g transform="translate(0.000000,2000.000000) scale(0.100000,-0.100000)"
fill="#000000" stroke="none">
<path d="M12426 15603 c-103 -31 -175 -101 -207 -206 -65 -204 101 -412 315
-395 204 17 332 208 270 404 -22 71 -96 153 -166 184 -60 26 -149 32 -212 13z
m128 -198 c66 -28 86 -110 40 -164 -64 -77 -194 -30 -190 69 2 36 34 85 65 97
37 15 44 15 85 -2z"/>
<path d="M6665 15471 c-3 -2 -5 -77 -5 -166 l0 -162 40 -1 c22 -1 41 1 41 6 4
28 4 322 -1 323 -16 4 -71 5 -75 0z"/>
<path d="M6261 15218 l-20 -33 22 -17 c12 -9 33 -23 47 -30 14 -7 66 -37 117
-65 51 -29 96 -53 101 -53 8 0 46 71 40 74 -4 1 -21 11 -163 90 -64 36 -119
66 -120 66 -2 0 -12 -15 -24 -32z"/>
<path d="M7105 15237 c-11 -8 -56 -33 -100 -57 -107 -57 -165 -91 -165 -96 0
-14 32 -64 40 -64 6 0 73 34 150 76 l139 76 -19 39 c-11 21 -22 39 -23 39 -1
0 -11 -6 -22 -13z"/>
<path d="M6485 14901 c-3 -6 -18 -16 -33 -24 -31 -15 -206 -109 -210 -112 -5
-4 31 -75 39 -75 5 0 275 146 287 155 1 1 -5 16 -14 33 -15 32 -55 45 -69 23z"/>
<path d="M6855 14884 c-21 -33 -16 -44 31 -70 51 -27 137 -76 193 -108 l45
-25 18 30 c10 16 18 33 18 38 0 12 -257 161 -278 161 -5 0 -17 -12 -27 -26z"/>
<path d="M6683 14792 c-23 -3 -23 -5 -23 -168 l0 -165 42 3 43 3 0 162 c1 155
0 162 -20 165 -11 2 -30 2 -42 0z"/>
<path d="M4480 14762 c-6 -2 -10 -41 -10 -88 0 -60 -4 -84 -12 -85 -7 -1 -43
-2 -80 -3 -36 0 -70 -5 -74 -9 -5 -5 -9 -26 -10 -48 l-1 -39 41 -1 c23 0 62
-1 89 -1 l47 1 0 -90 0 -89 50 0 50 0 -1 63 c-2 126 -10 114 83 116 45 1 84 4
87 7 10 9 7 84 -3 85 -6 1 -43 2 -83 3 -39 0 -75 4 -79 9 -4 4 -7 41 -6 82 1
47 -2 77 -10 81 -12 8 -61 11 -78 6z"/>
<path d="M14490 14548 c1 -35 1 -86 1 -113 l-1 -51 -109 1 -109 1 -4 -54 c-2
-30 -1 -57 2 -62 3 -4 51 -7 107 -7 57 0 106 -2 109 -6 3 -3 6 -53 6 -112 l-1
-106 61 3 61 3 -1 108 c-2 95 0 107 16 107 9 1 60 2 112 3 l95 2 1 58 c2 46
-1 57 -15 58 -9 1 -54 3 -101 4 -47 1 -90 3 -96 4 -7 1 -11 33 -12 89 -1 48
-1 97 -1 110 -1 20 -6 22 -62 22 l-60 0 1 -62z"/>
<path d="M9787 14355 c-132 -35 -98 -5 -1112 -1019 -523 -523 -972 -979 -998
-1013 -71 -93 -152 -252 -172 -340 -2 -10 -9 -36 -15 -58 -22 -89 -30 -278
-16 -369 13 -81 39 -180 63 -239 29 -72 75 -161 86 -165 4 -2 7 -8 7 -14 0
-21 93 -129 225 -261 135 -135 137 -138 119 -158 -21 -23 -347 -346 -590 -586
-262 -257 -1225 -1206 -1418 -1398 -95 -93 -197 -204 -227 -245 -165 -223
-309 -561 -345 -810 -15 -100 -9 -289 10 -355 50 -169 173 -286 341 -324 78
-18 221 -20 325 -5 88 13 265 57 300 75 8 4 42 17 75 30 64 24 264 120 296
143 31 21 68 77 79 116 5 19 12 90 15 158 3 68 8 138 10 155 2 18 7 75 10 127
4 52 9 97 11 99 2 3 82 6 177 8 431 8 441 9 478 70 21 34 24 81 29 486 l2 127
216 1 c276 1 318 3 370 18 47 13 73 36 333 292 184 181 381 372 568 552 l123
117 137 -136 c141 -141 244 -219 362 -272 68 -31 179 -67 239 -76 19 -3 49 -8
65 -11 40 -7 208 -7 265 1 154 20 338 92 465 182 64 45 1956 1932 1996 1990
64 94 89 232 62 346 -27 117 -60 161 -306 407 l-230 231 117 116 c64 64 126
131 137 147 150 224 149 500 -1 720 -16 23 -205 218 -421 435 -406 406 -462
454 -581 498 -131 49 -290 49 -424 3 -97 -34 -163 -81 -290 -203 -66 -65 -124
-118 -128 -118 -4 0 -100 93 -214 206 -263 263 -295 289 -402 316 -57 15 -171
16 -223 3z m1836 -1112 c197 -197 363 -367 369 -377 9 -17 -3 -32 -91 -119
l-101 -99 -379 379 -380 378 99 98 c54 53 104 97 111 97 7 0 175 -161 372
-357z m-1521 28 c26 -10 1567 -1547 1569 -1565 1 -6 3 -24 5 -41 2 -16 -5 -42
-16 -60 -35 -57 -412 -420 -470 -452 -151 -85 -321 -84 -475 2 -47 27 -175
150 -602 577 -574 576 -584 588 -612 708 -28 119 -5 265 55 363 30 48 429 454
459 467 27 12 59 12 87 1z"/>
<path d="M16800 13945 c-184 -39 -314 -191 -324 -378 -14 -234 172 -429 409
-429 182 0 339 119 390 295 28 96 21 195 -19 282 -80 173 -272 270 -456 230z
m188 -221 c118 -69 138 -226 42 -323 -138 -139 -369 -30 -354 166 4 48 32 100
77 138 67 57 156 64 235 19z"/>
<path d="M4488 12625 c-159 -42 -285 -180 -304 -333 -11 -89 -11 -93 7 -165
40 -159 172 -280 334 -305 33 -6 69 -8 80 -7 11 2 39 6 62 9 116 17 241 116
294 231 103 227 -14 487 -255 565 -54 17 -161 20 -218 5z m205 -218 c66 -39
96 -88 104 -169 14 -155 -158 -270 -299 -199 -168 85 -153 324 24 388 48 17
122 8 171 -20z"/>
<path d="M2487 11933 c-3 -4 -4 -61 -3 -126 0 -66 -2 -123 -5 -129 -4 -6 -61
-11 -135 -12 l-129 -1 0 -70 0 -70 128 -1 c70 0 130 -4 134 -7 3 -4 7 -64 7
-134 l1 -128 72 -3 72 -3 -1 132 c0 80 3 134 10 138 5 3 67 5 136 4 l127 -1
-3 71 -3 72 -129 2 c-70 1 -130 4 -133 6 -2 3 -5 63 -6 134 l-2 128 -67 3
c-36 2 -68 -1 -71 -5z"/>
<path d="M16345 11521 c-3 -2 -5 -55 -5 -118 l0 -113 -72 -1 c-40 0 -92 -1
-115 -1 -47 0 -50 -4 -52 -80 -1 -39 2 -48 16 -49 10 0 64 -1 121 -1 l102 0 0
-120 0 -119 63 3 62 3 2 95 c1 52 2 105 2 116 1 20 6 21 99 22 53 0 106 1 117
1 18 1 20 8 20 64 l0 62 -114 2 c-62 1 -115 4 -118 6 -2 3 -4 52 -4 108 0 57
-3 109 -7 114 -7 10 -108 15 -117 6z"/>
<path d="M18295 9936 c-176 -41 -307 -167 -359 -344 -20 -68 -15 -207 10 -277
16 -45 63 -126 96 -165 7 -9 33 -32 58 -52 237 -190 586 -113 723 158 108 215
33 490 -170 617 -100 63 -246 89 -358 63z m219 -216 c84 -40 150 -132 159
-225 9 -91 -42 -201 -118 -254 -93 -64 -226 -62 -317 5 -221 159 -102 510 168
498 37 -2 80 -12 108 -24z"/>
<path d="M2290 9523 c-132 -36 -259 -159 -301 -291 -90 -285 113 -578 405
-584 96 -2 140 7 214 43 163 80 254 232 249 415 -6 184 -110 333 -281 402 -77
31 -204 38 -286 15z m240 -215 c179 -100 168 -356 -19 -440 -204 -93 -418 127
-320 329 26 53 98 118 147 132 59 16 141 7 192 -21z"/>
<path d="M16858 8542 c-16 -3 -18 -19 -18 -168 l0 -164 40 0 c22 0 41 3 41 8
4 26 4 314 -1 320 -6 8 -35 10 -62 4z"/>
<path d="M16442 8288 c-11 -18 -19 -35 -16 -39 5 -9 271 -159 282 -159 5 0 16
16 25 35 16 34 16 35 -6 48 -56 34 -257 147 -261 147 -2 0 -13 -14 -24 -32z"/>
<path d="M17215 8268 c-38 -22 -96 -53 -128 -70 -31 -16 -60 -34 -62 -39 -7
-11 23 -69 35 -69 21 0 280 146 280 157 0 25 -24 63 -39 62 -9 -1 -47 -19 -86
-41z"/>
<path d="M16565 7913 c-77 -42 -141 -77 -143 -79 -5 -4 27 -62 38 -69 6 -4 33
7 60 24 28 17 53 31 55 31 5 0 165 89 174 96 3 3 -38 74 -42 74 -1 0 -65 -35
-142 -77z"/>
<path d="M17037 7954 c-10 -19 -17 -37 -17 -39 0 -2 64 -40 142 -84 l142 -80
18 30 c23 38 20 50 -18 69 -16 8 -61 34 -101 57 -40 23 -90 51 -111 62 l-39
20 -16 -35z"/>
<path d="M16858 7862 c-16 -3 -18 -19 -18 -168 l0 -164 43 0 42 0 0 165 c0
103 -4 165 -10 166 -5 0 -17 2 -25 3 -8 1 -23 1 -32 -2z"/>
<path d="M1088 6453 c-48 -53 -43 -124 11 -156 27 -16 103 -17 983 -17 1059 0
984 -5 1014 66 12 29 12 39 0 68 -30 71 46 66 -1021 66 l-961 0 -26 -27z"/>
<path d="M3613 6468 c-11 -5 -29 -24 -38 -42 -24 -43 -8 -104 34 -129 27 -16
176 -17 2509 -17 l2480 0 31 25 c38 33 45 54 32 102 -7 25 -21 44 -40 56 -27
16 -176 17 -2508 16 -1695 0 -2485 -4 -2500 -11z"/>
<path d="M9321 6466 c-67 -37 -65 -143 4 -174 39 -18 4549 -17 4585 1 61 30
69 117 15 165 l-26 22 -2277 0 c-1871 -1 -2281 -3 -2301 -14z"/>
<path d="M14504 6462 c-12 -10 -26 -28 -33 -40 -26 -48 10 -125 63 -136 16 -4
419 -6 896 -6 937 0 892 -2 921 52 23 43 18 77 -16 114 l-32 34 -889 0 c-833
-1 -890 -2 -910 -18z"/>
<path d="M16810 6473 c-67 -26 -73 -140 -9 -175 29 -17 98 -18 1055 -18 l1024
0 31 28 c25 23 32 36 33 71 1 36 -4 47 -32 72 l-32 29 -1028 -1 c-565 0 -1034
-3 -1042 -6z"/>
<path d="M3544 5447 c-74 -39 -69 -158 9 -183 12 -4 721 -7 1575 -7 l1553 0
25 24 c34 34 45 78 29 117 -27 63 81 59 -1621 59 -1004 0 -1558 -3 -1570 -10z"/>
<path d="M7264 5452 c-30 -4 -65 -44 -70 -80 -6 -37 17 -87 48 -103 18 -9 832
-12 3523 -11 1925 0 3512 1 3527 1 35 1 76 38 87 77 11 39 -9 84 -47 106 -24
14 -360 15 -3537 15 -1930 -1 -3520 -3 -3531 -5z"/>
<path d="M14734 5447 c-37 -20 -54 -49 -54 -93 0 -35 5 -47 31 -68 17 -14 34
-26 37 -27 9 -1 1628 -1 1669 0 18 1 44 12 62 27 25 21 31 33 31 65 0 50 -23
85 -63 98 -45 13 -1688 12 -1713 -2z"/>
<path d="M5625 4582 c-78 -7 -102 -28 -110 -96 -4 -29 0 -42 24 -68 l29 -33
180 -2 c158 -1 183 1 210 17 44 27 59 78 36 125 -10 21 -28 41 -43 47 -24 9
-258 16 -326 10z"/>
<path d="M6354 4582 c-65 -10 -94 -43 -94 -105 1 -36 13 -56 50 -79 23 -15
181 -16 1603 -15 l1579 2 29 33 c40 44 40 93 0 133 -20 20 -40 29 -63 30 -113
2 -3088 3 -3104 1z"/>
<path d="M9914 4582 c-66 -11 -94 -42 -94 -107 0 -40 35 -81 77 -88 15 -3 781
-5 1701 -4 l1674 2 29 33 c16 18 29 44 29 58 0 34 -26 81 -52 95 -17 9 -430
12 -1683 13 -914 1 -1670 0 -1681 -2z"/>
<path d="M13659 4579 c-49 -11 -72 -40 -73 -94 -1 -40 3 -50 31 -75 l31 -28
390 1 390 2 26 24 c48 46 40 132 -16 162 -23 12 -721 19 -779 8z"/>
</g>
</svg>
